<?xml version="1.0" encoding="utf-8"?>
<!-- Generator: Adobe Illustrator 19.1.0, SVG Export Plug-In . SVG Version: 6.00 Build 0)  -->
<svg version="1.1" id="Layer_1" xmlns="http://www.w3.org/2000/svg" xmlns:xlink="http://www.w3.org/1999/xlink" x="0px" y="0px"
	 viewBox="-470.7 267.3 258.7 258.7" style="enable-background:new -470.7 267.3 258.7 258.7;" xml:space="preserve">
<style type="text/css">
	.st0{fill:#FFFFFF;}
</style>
<g>
	<path d="M-341,272c-69,0-125,56-125,125s56,125,125,125s125-56,125-125S-272,272-341,272z M-363.3,415.4h-8.2l-15.6-25.1h-0.1v25.1
		h-7.7v-37.5h8.2l15.6,25.1h0.1v-25.1h7.7V415.4z M-331.1,403.6h-19.6c0.1,2.4,0.7,4.2,1.8,5.2c1.1,1.1,2.7,1.6,4.8,1.6
		c1.5,0,2.8-0.4,3.9-1.1c1.1-0.8,1.7-1.5,2-2.4h6.6c-1,3.3-2.7,5.6-4.8,7c-2.2,1.4-4.8,2.1-7.9,2.1c-2.1,0-4.1-0.3-5.8-1
		c-1.7-0.7-3.2-1.7-4.4-2.9c-1.2-1.3-2.1-2.8-2.8-4.5c-0.6-1.7-1-3.7-1-5.8c0-2,0.3-3.9,1-5.7c0.7-1.7,1.6-3.3,2.8-4.5
		c1.2-1.3,2.7-2.3,4.4-3c1.7-0.7,3.6-1.1,5.6-1.1c2.3,0,4.3,0.4,6,1.3c1.7,0.9,3.1,2.1,4.2,3.6c1.1,1.5,1.9,3.2,2.4,5.1
		C-331.1,399.5-330.9,401.5-331.1,403.6z M-295.7,415.4h-7.7l-4.8-18.2h-0.1l-4.6,18.2h-7.7l-8.6-27.1h7.9l5,18.4h0.1l4.5-18.4h7.2
		l4.6,18.4h0.1l5-18.4h7.7L-295.7,415.4z"/>
	<path d="M-344.5,393.1c-1.2,0-2.2,0.2-3,0.6c-0.8,0.4-1.4,0.9-1.9,1.5c-0.5,0.6-0.8,1.2-1,1.9c-0.2,0.7-0.3,1.3-0.3,1.8h12.1
		c-0.4-1.9-1-3.3-1.9-4.3C-341.3,393.6-342.6,393.1-344.5,393.1z"/>
	<polygon class="st0" points="-371,403.1 -371.1,403.1 -386.7,377.9 -394.9,377.9 -394.9,415.4 -387.2,415.4 -387.2,390.3 
		-387.1,390.3 -371.5,415.4 -363.3,415.4 -363.3,377.9 -371,377.9 	"/>
	<path class="st0" d="M-334,392.5c-1.1-1.5-2.5-2.7-4.2-3.6c-1.7-0.9-3.7-1.3-6-1.3c-2.1,0-3.9,0.4-5.6,1.1c-1.7,0.7-3.2,1.7-4.4,3
		c-1.2,1.3-2.2,2.8-2.8,4.5c-0.7,1.8-1,3.6-1,5.7c0,2.1,0.3,4,1,5.8c0.6,1.8,1.6,3.3,2.8,4.5c1.2,1.3,2.6,2.2,4.4,2.9
		c1.7,0.7,3.6,1,5.8,1c3.1,0,5.7-0.7,7.9-2.1c2.2-1.4,3.8-3.7,4.8-7h-6.6c-0.2,0.8-0.9,1.6-2,2.4c-1.1,0.8-2.4,1.1-3.9,1.1
		c-2.1,0-3.7-0.5-4.8-1.6c-1.1-1.1-1.7-2.8-1.8-5.2h19.6c0.1-2.1,0-4.1-0.5-6C-332.1,395.7-332.9,394-334,392.5z M-350.7,398.9
		c0-0.5,0.1-1.1,0.3-1.8c0.2-0.7,0.5-1.3,1-1.9c0.5-0.6,1.1-1.1,1.9-1.5c0.8-0.4,1.8-0.6,3-0.6c1.8,0,3.2,0.5,4.1,1.5
		c0.9,1,1.5,2.4,1.9,4.3H-350.7z"/>
	<polygon class="st0" points="-299.7,406.6 -299.9,406.6 -304.5,388.3 -311.7,388.3 -316.2,406.7 -316.3,406.7 -321.3,388.3 
		-329.2,388.3 -320.6,415.4 -312.9,415.4 -308.2,397.2 -308.1,397.2 -303.3,415.4 -295.7,415.4 -287.1,388.3 -294.8,388.3 	"/>
</g>
</svg>
