<?xml version="1.0" encoding="UTF-8" standalone="no"?>
<svg width="77px" height="11px" viewBox="0 0 77 11" version="1.1" xmlns="http://www.w3.org/2000/svg" xmlns:xlink="http://www.w3.org/1999/xlink" xmlns:sketch="http://www.bohemiancoding.com/sketch/ns">
    <!-- Generator: Sketch 3.5.2 (25235) - http://www.bohemiancoding.com/sketch -->
    <title>4.5Star</title>
    <desc>Created with Sketch.</desc>
    <defs></defs>
    <g id="Templates" stroke="none" stroke-width="1" fill="none" fill-rule="evenodd" sketch:type="MSPage">
        <g id="Vectors" sketch:type="MSArtboardGroup" transform="translate(-379.000000, -651.000000)">
            <g id="Shopping" sketch:type="MSLayerGroup" transform="translate(379.000000, 192.000000)">
                <g id="StarRatings" transform="translate(0.000000, 313.000000)" sketch:type="MSShapeGroup">
                    <g id="4.5Star" transform="translate(0.705021, 146.054545)">
                        <path d="M76.1429592,4.33675 L72.6481707,6.813125 L73.9919405,10.836375 L70.4901018,8.3524375 L66.981213,10.836375 L68.3242777,6.813125 L64.8372445,4.33675 L69.1470371,4.33675 L70.4901018,0.3348125 L71.8261164,4.33675 L76.1429592,4.33675" id="Fill-1" fill="#C5C5C5"></path>
                        <path d="M72.6206749,4.33675 L66.981213,10.836375 L68.3242777,6.813125 L64.8372445,4.33675 L69.1470371,4.33675 L70.4901018,0.3348125 L71.8261164,4.33675 L72.6206749,4.33675" id="Fill-12" fill="#000000"></path>
                        <path d="M43.4180054,4.33675 L39.9239219,6.813125 L41.2669867,10.836375 L37.765148,8.3524375 L34.2562591,10.836375 L35.6000289,6.813125 L32.1129957,4.33675 L36.4220833,4.33675 L37.765148,0.3348125 L39.1011626,4.33675 L43.4180054,4.33675" id="Fill-52" fill="#000000"></path>
                        <path d="M59.8689624,4.33675 L56.3741739,6.813125 L57.7179437,10.836375 L54.2161051,8.3524375 L50.7072162,10.836375 L52.0502809,6.813125 L48.5632477,4.33675 L52.8723353,4.33675 L54.2161051,0.3348125 L55.5521196,4.33675 L59.8689624,4.33675" id="Fill-53" fill="#000000"></path>
                        <path d="M27.496519,4.33675 L24.0017306,6.813125 L25.3455003,10.836375 L21.8436617,8.3524375 L18.3347728,10.836375 L19.6778376,6.813125 L16.1908043,4.33675 L20.5005969,4.33675 L21.8436617,0.3348125 L23.1796762,4.33675 L27.496519,4.33675" id="Fill-54" fill="#000000"></path>
                        <path d="M11.3395557,4.33675 L7.84547226,6.813125 L9.18853702,10.836375 L5.68669835,8.3524375 L2.17780947,10.836375 L3.52157926,6.813125 L0.0345460227,4.33675 L4.34363359,4.33675 L5.68669835,0.3348125 L7.02271291,4.33675 L11.3395557,4.33675" id="Fill-55" fill="#000000"></path>
                    </g>
                </g>
            </g>
        </g>
    </g>
</svg>