<?xml version="1.0" encoding="UTF-8" standalone="no"?>
<svg width="77px" height="11px" viewBox="0 0 77 11" version="1.1" xmlns="http://www.w3.org/2000/svg" xmlns:xlink="http://www.w3.org/1999/xlink" xmlns:sketch="http://www.bohemiancoding.com/sketch/ns">
    <!-- Generator: Sketch 3.5.2 (25235) - http://www.bohemiancoding.com/sketch -->
    <title>NoStars</title>
    <desc>Created with Sketch.</desc>
    <defs></defs>
    <g id="Templates" stroke="none" stroke-width="1" fill="none" fill-rule="evenodd" sketch:type="MSPage">
        <g id="Vectors" sketch:type="MSArtboardGroup" transform="translate(-379.000000, -505.000000)" fill="#C5C5C5">
            <g id="Shopping" sketch:type="MSLayerGroup" transform="translate(379.000000, 192.000000)">
                <g id="StarRatings" transform="translate(0.000000, 313.000000)" sketch:type="MSShapeGroup">
                    <g id="NoStars" transform="translate(0.000000, 0.371529)">
                        <path d="M11.7512879,4.2068125 L8.25649943,6.683875 L9.60026921,10.707125 L6.09843054,8.2231875 L2.58954166,10.707125 L3.93260642,6.683875 L0.445573191,4.2068125 L4.75466076,4.2068125 L6.09843054,0.2055625 L7.4344451,4.2068125 L11.7512879,4.2068125" id="Fill-6"></path>
                        <path d="M28.2015399,4.2068125 L24.7067514,6.683875 L26.0505212,10.707125 L22.5486825,8.2231875 L19.0397937,10.707125 L20.3828584,6.683875 L16.8958252,4.2068125 L21.2056178,4.2068125 L22.5486825,0.2055625 L23.8846971,4.2068125 L28.2015399,4.2068125" id="Fill-17"></path>
                        <path d="M44.1230263,4.2068125 L40.6289428,6.683875 L41.9720076,10.707125 L38.4701689,8.2231875 L34.96128,10.707125 L36.3050498,6.683875 L32.8180166,4.2068125 L37.1271041,4.2068125 L38.4701689,0.2055625 L39.8061835,4.2068125 L44.1230263,4.2068125" id="Fill-18"></path>
                        <path d="M60.5739833,4.2068125 L57.0791948,6.683875 L58.4229646,10.707125 L54.9211259,8.2231875 L51.412237,10.707125 L52.7553018,6.683875 L49.2682686,4.2068125 L53.5773561,4.2068125 L54.9211259,0.2055625 L56.2571405,4.2068125 L60.5739833,4.2068125" id="Fill-19"></path>
                        <path d="M76.8479801,4.2068125 L73.3531916,6.683875 L74.6969614,10.707125 L71.1951227,8.2231875 L67.6862338,10.707125 L69.0292986,6.683875 L65.5422654,4.2068125 L69.852058,4.2068125 L71.1951227,0.2055625 L72.5311373,4.2068125 L76.8479801,4.2068125" id="Fill-20"></path>
                    </g>
                </g>
            </g>
        </g>
    </g>
</svg>