<?xml version="1.0" encoding="UTF-8" standalone="no"?>
<svg width="76px" height="11px" viewBox="0 0 76 11" version="1.1" xmlns="http://www.w3.org/2000/svg" xmlns:xlink="http://www.w3.org/1999/xlink" xmlns:sketch="http://www.bohemiancoding.com/sketch/ns">
    <!-- Generator: Sketch 3.5.2 (25235) - http://www.bohemiancoding.com/sketch -->
    <title>5Star</title>
    <desc>Created with Sketch.</desc>
    <defs></defs>
    <g id="Templates" stroke="none" stroke-width="1" fill="none" fill-rule="evenodd" sketch:type="MSPage">
        <g id="Vectors" sketch:type="MSArtboardGroup" transform="translate(-379.000000, -668.000000)" fill="#000000">
            <g id="Shopping" sketch:type="MSLayerGroup" transform="translate(379.000000, 192.000000)">
                <g id="StarRatings" transform="translate(0.000000, 313.000000)" sketch:type="MSShapeGroup">
                    <g id="5Star" transform="translate(0.795918, 162.876712)">
                        <path d="M42.7202247,4.3938125 L39.2822955,6.870875 L40.6037755,10.894125 L37.1582157,8.4101875 L33.705719,10.894125 L35.0278927,6.870875 L31.5969004,4.3938125 L35.8367356,4.3938125 L37.1582157,0.391875 L38.4727588,4.3938125 L42.7202247,4.3938125" id="Fill-56"></path>
                        <path d="M74.9192483,4.3938125 L71.4806254,6.870875 L72.8027991,10.894125 L69.3572393,8.4101875 L65.9047426,10.894125 L67.2262226,6.870875 L63.7952303,4.3938125 L68.0357592,4.3938125 L69.3572393,0.391875 L70.6717824,4.3938125 L74.9192483,4.3938125" id="Fill-57"></path>
                        <path d="M58.9067946,4.3938125 L55.4681717,6.870875 L56.7903454,10.894125 L53.3447856,8.4101875 L49.8922889,10.894125 L51.213769,6.870875 L47.7827766,4.3938125 L52.0226119,4.3938125 L53.3447856,0.391875 L54.6593288,4.3938125 L58.9067946,4.3938125" id="Fill-58"></path>
                        <path d="M27.0546162,4.3938125 L23.6159933,6.870875 L24.938167,10.894125 L21.4926072,8.4101875 L18.0401105,10.894125 L19.3615905,6.870875 L15.9305982,4.3938125 L20.1711271,4.3938125 L21.4926072,0.391875 L22.8071503,4.3938125 L27.0546162,4.3938125" id="Fill-59"></path>
                        <path d="M11.1573151,4.3938125 L7.71938588,6.870875 L9.04086594,10.894125 L5.59530612,8.4101875 L2.1428094,10.894125 L3.46498315,6.870875 L0.0339908257,4.3938125 L4.27382606,4.3938125 L5.59530612,0.391875 L6.90984928,4.3938125 L11.1573151,4.3938125" id="Fill-60"></path>
                    </g>
                </g>
            </g>
        </g>
    </g>
</svg>